<svg width="422" height="80" viewBox="0 0 422 80" fill="none" xmlns="http://www.w3.org/2000/svg">
<g clip-path="url(#clip0_4278_110)">
<path d="M75.6351 27.6746C75.9431 24.6346 76.7529 21.3432 78.0645 17.7889C79.684 13.3318 82.159 9.50322 85.5008 6.30322C88.8426 3.10322 92.9827 1.51465 97.9441 1.51465C106.145 1.51465 112.463 4.63466 116.923 10.8632C121.371 17.1032 123.606 26.0975 123.606 37.8575V70.8632C123.606 73.0918 124.268 74.6689 125.579 75.5832C126.891 76.4975 130.028 76.9546 134.989 76.9546V78.4747H94.4654V76.9546C99.5294 76.9546 102.689 76.4975 103.955 75.5832C105.221 74.6689 105.848 73.1032 105.848 70.8632V37.8575C105.848 27.3089 104.582 19.4346 102.05 14.2118C99.518 8.98893 96.1306 6.38323 91.8764 6.38323C87.6222 6.38323 84.691 8.38322 82.467 12.3947C80.2429 16.4061 78.669 21.0689 77.7565 26.3832C76.8441 31.7089 76.3879 36.3946 76.3879 40.4518V70.8747C76.3879 73.1032 77.0494 74.6803 78.361 75.5946C79.6726 76.5089 82.8091 76.9661 87.7705 76.9661V78.4861H47.2471V76.9661C52.3111 76.9661 55.4704 76.5089 56.7364 75.5946C58.0024 74.6803 58.6297 73.1147 58.6297 70.8747V37.8689C58.6297 27.3204 57.3865 19.4461 54.9115 14.2232C52.4251 9.00037 49.1176 6.39465 44.966 6.39465C40.8144 6.39465 37.7578 8.39466 35.4767 12.4061C33.1956 16.4175 31.576 21.0804 30.618 26.3947C29.6599 31.7204 29.1809 36.4061 29.1809 40.4632V70.8861C29.1809 73.1146 29.8424 74.6918 31.154 75.6061C32.4657 76.5204 35.6022 76.9775 40.5635 76.9775V78.4975H0.0401001V76.9775C5.00145 76.9775 8.13794 76.5204 9.44956 75.6061C10.7612 74.6918 11.4227 73.1261 11.4227 70.8861V13.8461C11.4227 11.5146 10.7612 9.91467 9.44956 9.05753C8.12653 8.20039 4.99005 7.76608 0.0401001 7.76608V6.24608C6.51837 6.24608 12.3579 5.93752 17.5702 5.3318C22.7825 4.72609 26.1471 3.76609 27.664 2.44038H29.1809V23.1261C29.5801 21.4004 30.139 19.629 30.8461 17.8004C32.4657 13.3432 34.9406 9.51466 38.2824 6.31466C41.6242 3.12609 45.867 1.52609 51.0337 1.52609C64.9939 1.52609 73.1944 10.2461 75.6237 27.6861L75.6351 27.6746Z" fill="#ffffff"/>
<path d="M179.459 78.4748H138.935V76.9548C143.896 76.9548 147.033 76.4977 148.345 75.5834C149.656 74.6691 150.318 73.1034 150.318 70.8634V13.8234C150.318 11.5948 149.656 10.0177 148.345 9.10338C147.033 8.18909 143.885 7.73195 138.935 7.73195V6.21195C145.413 6.21195 151.253 5.90339 156.465 5.29768C161.677 4.69196 165.042 3.73196 166.559 2.40625H168.076V70.8519C168.076 73.0805 168.726 74.6577 170.049 75.5719C171.361 76.4862 174.497 76.9434 179.459 76.9434V78.4634V78.4748Z" fill="#ffffff"/>
<path d="M411.479 78.9321C408.342 78.9321 405.81 77.9721 403.894 76.0406C401.967 74.1206 401.009 71.5835 401.009 68.4406C401.009 65.2978 401.967 62.6349 403.894 60.7606C405.81 58.8864 408.342 57.9492 411.479 57.9492C414.615 57.9492 417.147 58.8864 419.063 60.7606C420.979 62.6349 421.949 65.1949 421.949 68.4406C421.949 74.8292 418.459 78.3263 411.479 78.9321Z" fill="#ffffff"/>
<path d="M276.895 78.4747H236.371V76.9546C241.435 76.9546 244.595 76.4975 245.861 75.5832C247.127 74.669 247.754 73.1032 247.754 70.8632V37.8575C247.754 27.3089 246.089 19.2975 242.747 13.8232C239.405 8.34894 235.254 5.60608 230.304 5.60608C225.354 5.60608 221.476 8.04038 218.693 12.909C215.91 17.7775 214.519 23.3547 214.519 29.6404V70.8632C214.519 73.0918 215.18 74.669 216.492 75.5832C217.803 76.4975 220.94 76.9546 225.901 76.9546V78.4747H185.378V76.9546C190.339 76.9546 193.476 76.4975 194.787 75.5832C196.099 74.669 196.761 73.1032 196.761 70.8632V13.8232C196.761 11.4918 196.099 9.89179 194.787 9.03465C193.476 8.17751 190.339 7.74323 185.378 7.74323V6.22323C191.856 6.22323 197.696 5.91466 202.908 5.30894C208.12 4.70323 211.485 3.74323 213.002 2.41752H214.519V17.0232C216.036 12.5661 218.739 8.86322 222.639 5.92608C226.54 2.98893 231.513 1.51465 237.592 1.51465C245.986 1.51465 252.75 4.55464 257.859 10.6346C262.969 16.7146 265.524 25.7889 265.524 37.8575V70.8632C265.524 73.0918 266.185 74.669 267.497 75.5832C268.808 76.4975 271.945 76.9546 276.906 76.9546V78.4747H276.895Z" fill="#ffffff"/>
<path d="M393.526 59.937C389.375 66.017 383.056 69.0685 374.548 69.0685C369.792 69.0685 365.309 67.9256 361.112 65.6513C356.915 63.3656 353.55 59.5942 351.018 54.3142C350.414 53.1942 349.855 51.937 349.353 50.5085C363.827 50.3027 374.856 48.177 382.44 44.1199C390.436 39.9599 394.427 33.5713 394.427 24.9542C394.427 17.3542 391.622 11.3885 385.999 7.0799C380.387 2.77133 373.225 0.611328 364.522 0.611328C354.064 0.611328 345.612 3.66276 339.168 9.74276C343.092 14.1085 345.852 19.1485 347.471 24.8285C348.11 18.3713 349.513 13.3542 351.703 9.81133C354.794 4.79419 358.706 2.27991 363.462 2.27991C366.906 2.27991 369.609 3.3199 371.582 5.3999C373.556 7.4799 374.97 10.0628 375.837 13.1599C376.692 16.257 377.125 19.2742 377.125 22.2113C377.125 26.9771 376.065 31.3885 373.943 35.4456C371.822 39.5028 368.583 42.7485 364.226 45.1828C360.177 47.4113 355.067 48.6342 348.897 48.8285H347.916C346.399 55.1142 343.525 60.5885 339.248 65.2056C338.735 65.7542 338.199 66.2799 337.663 66.7942C337.788 66.9427 337.914 67.0913 338.05 67.2399C344.985 74.7485 353.961 78.4971 364.99 78.4971C371.366 78.4971 377.182 77.057 382.44 74.1656C387.698 71.2742 391.85 66.7942 394.884 60.7028L393.515 59.937H393.526Z" fill="#ffffff"/>
<path d="M336.693 11.8685C329.759 4.35989 320.783 0.611328 309.754 0.611328C303.378 0.611328 297.561 2.05132 292.303 4.94275C287.046 7.83418 282.894 12.3142 279.86 18.4056L281.229 19.1713C285.38 13.0913 291.699 10.0399 300.207 10.0399C304.963 10.0399 309.446 11.1828 313.643 13.457C317.84 15.7428 321.205 19.5142 323.737 24.7828C324.341 25.9028 324.9 27.1599 325.402 28.5885C310.928 28.7942 299.899 30.9199 292.315 34.977C284.32 39.137 280.328 45.5256 280.328 54.1428C280.328 61.7428 283.133 67.7085 288.756 72.017C294.368 76.3256 301.53 78.4856 310.233 78.4856C321.57 78.4856 330.546 74.9085 337.172 67.7656C343.799 60.6227 347.118 51.4685 347.118 40.3142C347.118 29.1599 343.651 19.377 336.716 11.8685H336.693ZM323.03 69.2856C319.939 74.3028 316.027 76.817 311.271 76.817C307.826 76.817 305.123 75.777 303.15 73.697C301.177 71.617 299.763 69.0342 298.896 65.937C298.04 62.8399 297.607 59.8228 297.607 56.8856C297.607 52.1199 298.668 47.7085 300.789 43.6513C302.91 39.5942 306.15 36.3485 310.506 33.9142C314.555 31.6856 319.665 30.4628 325.835 30.2685C327.044 34.5313 327.66 39.5942 327.66 45.4799C327.66 56.3256 326.12 64.2685 323.03 69.2856Z" fill="#ffffff"/>
</g>
<defs>
<clipPath id="clip0_4278_110">
<rect width="422" height="80" fill="white"/>
</clipPath>
</defs>
</svg>
