<svg width="200" height="134" viewBox="0 0 200 134" fill="none" xmlns="http://www.w3.org/2000/svg">
<g clip-path="url(#clip0_4290_207)">
<path d="M196.597 102.11C189.44 112.555 178.545 117.798 163.876 117.798C155.676 117.798 147.947 115.834 140.711 111.927C133.474 108 127.673 101.521 123.308 92.4505C122.266 90.5264 121.302 88.3666 120.437 85.9124C145.391 85.559 164.407 81.9072 177.484 74.9372C191.268 67.7905 198.151 56.8153 198.151 42.0115C198.151 28.9551 193.313 18.7063 183.619 11.3044C173.944 3.90249 161.595 0.191711 146.591 0.191711C128.558 0.191711 113.987 5.43392 102.876 15.879C109.641 23.3791 114.4 32.0375 117.192 41.7955C118.293 30.7025 120.712 22.0833 124.488 15.9968C129.817 7.37765 136.562 3.05824 144.762 3.05824C150.701 3.05824 155.361 4.8449 158.763 8.41824C162.165 11.9916 164.603 16.4288 166.098 21.7495C167.573 27.0702 168.32 32.2536 168.32 37.2994C168.32 45.4867 166.491 53.0653 162.834 60.0352C159.176 67.0052 153.591 72.5812 146.079 76.7632C139.098 80.5917 130.289 82.6925 119.65 83.0263H117.959C115.344 93.8248 110.388 103.229 103.014 111.161C102.129 112.104 101.205 113.007 100.281 113.89C100.497 114.146 100.713 114.401 100.949 114.656C112.905 127.556 128.381 133.995 147.397 133.995C158.389 133.995 168.418 131.522 177.484 126.554C186.549 121.587 193.707 113.89 198.938 103.426L196.578 102.11H196.597Z" fill="#A2948C"/>
<path d="M98.6093 19.5309C86.6533 6.63155 71.1773 0.191711 52.1617 0.191711C41.1693 0.191711 31.1404 2.66554 22.0751 7.63287C13.0097 12.6002 5.85185 20.2966 0.621094 30.7614L2.98086 32.0769C10.1387 21.6317 21.0328 16.3895 35.7025 16.3895C43.9026 16.3895 51.6308 18.3529 58.8673 22.26C66.1038 26.1867 71.9049 32.6659 76.2704 41.717C77.3126 43.6411 78.2762 45.8008 79.1414 48.255C54.1872 48.6084 35.1716 52.2603 22.0947 59.2302C8.30994 66.3769 1.42735 77.3522 1.42735 92.156C1.42735 105.212 6.26484 115.461 15.9594 122.863C25.6344 130.265 37.9836 133.976 52.9876 133.976C72.5341 133.976 88.0101 127.83 99.4352 115.559C110.86 103.288 116.583 87.5617 116.583 68.3992C116.583 49.2367 110.605 32.4302 98.6486 19.5309H98.6093ZM75.0512 118.171C69.7221 126.79 62.9772 131.109 54.7771 131.109C48.8384 131.109 44.178 129.323 40.776 125.749C37.3741 122.176 34.9356 117.739 33.4411 112.418C31.9663 107.097 31.219 101.914 31.219 96.8681C31.219 88.6808 33.0479 81.1022 36.7054 74.1322C40.363 67.1622 45.9477 61.5863 53.4596 57.4043C60.4405 53.5757 69.2502 51.4749 79.8887 51.1412C81.9731 58.4645 83.035 67.1622 83.035 77.2736C83.035 95.906 80.3803 109.551 75.0512 118.171Z" fill="#A2948C"/>
</g>
<defs>
<clipPath id="clip0_4290_207">
<rect width="200" height="134" fill="white"/>
</clipPath>
</defs>
</svg>
